#N canvas 458 170 792 507 12;
#X obj 233 175 mod;
#X obj 196 27 tgl 30 0 empty empty Start_Metronome 17 -7 0 10 -13381
-1 -1 1 1;
#X obj 177 113 + 1;
#X floatatom 209 114 5 0 0 1 accumulator - -;
#X obj 294 174 mod;
#X floatatom 294 197 5 0 0 0 - - -;
#X obj 329 222 /;
#X obj 404 64 vsl 15 128 0 100 0 0 empty empty Frequency_Range 0 -9
0 10 -4034 -1 -1 1400 1;
#X obj 56 127 vradio 15 1 0 7 empty empty Drum_Trigger_Step 0 -8 0
10 -204800 -1 -1 3;
#X obj 78 275 mod;
#X obj 78 340 spigot;
#X msg 141 56 1;
#X obj 78 306 == 0;
#X obj 232 203 == 0;
#X obj 361 30 vradio 15 1 0 7 empty empty Drone_Change_Step 0 -8 0
10 -204786 -1 -1 5;
#X obj 355 296 spigot;
#X obj 356 352 -;
#X msg 355 328 1;
#X obj 177 57 metro 110;
#X obj 393 432 mtof;
#X obj 393 401 int;
#X floatatom 393 464 5 0 0 0 - - -;
#X obj 16 37 loadbang;
#X obj 450 241 max 0.1;
#X floatatom 450 266 5 0 0 0 - - -;
#X obj 78 386 bng 15 250 50 0 empty empty empty 17 7 0 10 -262144 -1
-1;
#X obj 101 26 bng 30 250 50 0 empty empty Reset_Ticks 17 -7 0 10 -262130
-1 -1;
#X obj 450 431 mtof;
#X obj 450 400 int;
#X floatatom 450 463 5 0 0 0 - - -;
#X obj 393 371 * 100;
#X obj 450 370 * 100;
#X text 506 239 prevent midi note 0;
#X obj 361 140 + 1;
#X obj 404 203 + 1;
#X obj 56 236 + 1;
#X connect 0 0 13 0;
#X connect 1 0 18 0;
#X connect 2 0 3 0;
#X connect 3 0 2 1;
#X connect 3 0 0 0;
#X connect 3 0 4 0;
#X connect 3 0 9 0;
#X connect 4 0 5 0;
#X connect 5 0 6 0;
#X connect 6 0 23 0;
#X connect 7 0 34 0;
#X connect 8 0 35 0;
#X connect 9 0 12 0;
#X connect 10 0 25 0;
#X connect 11 0 3 0;
#X connect 11 0 2 0;
#X connect 12 0 10 0;
#X connect 12 0 10 1;
#X connect 13 0 15 1;
#X connect 14 0 33 0;
#X connect 15 0 16 1;
#X connect 15 0 17 0;
#X connect 16 0 30 0;
#X connect 17 0 16 0;
#X connect 18 0 2 0;
#X connect 19 0 21 0;
#X connect 20 0 19 0;
#X connect 22 0 11 0;
#X connect 23 0 24 0;
#X connect 24 0 15 0;
#X connect 24 0 31 0;
#X connect 26 0 11 0;
#X connect 27 0 29 0;
#X connect 28 0 27 0;
#X connect 30 0 20 0;
#X connect 31 0 28 0;
#X connect 33 0 0 1;
#X connect 34 0 4 1;
#X connect 34 0 6 1;
#X connect 35 0 9 1;
