#N canvas 85 133 900 663 10;
#X obj 273 365 osc~;
#X obj 373 365 osc~;
#X obj 446 531 dac~;
#X floatatom 273 44 5 1 1000 0 - - -;
#X obj 273 429 *~ 0.1;
#X obj 373 429 *~ 0.1;
#X floatatom 306 365 5 0.05 1 0 - - -;
#X obj 524 487 +~;
#X msg 284 75 1;
#X obj 316 91 -;
#X floatatom 373 43 5 1 1000 0 - - -;
#X msg 386 74 1;
#X obj 418 90 -;
#X obj 315 59 log 1000;
#X obj 539 365 osc~;
#X obj 643 364 osc~;
#X floatatom 539 41 5 1 1000 0 - - -;
#X obj 539 426 *~ 0.1;
#X obj 643 424 *~ 0.1;
#X msg 550 72 1;
#X obj 582 88 -;
#X floatatom 643 38 5 1 1000 0 - - -;
#X msg 661 69 1;
#X obj 693 85 -;
#X floatatom 406 365 5 0.05 1 0 - - -;
#X floatatom 572 366 5 0.05 1 0 - - -;
#X floatatom 676 364 5 0.05 1 0 - - -;
#X obj 417 58 log 1000;
#X obj 581 56 log 1000;
#X obj 692 53 log 1000;
#X obj 358 488 +~;
#X obj 693 181 osc~;
#X floatatom 693 157 5 1 1000 0 - - -;
#X obj 693 131 * 1000;
#X obj 316 197 osc~;
#X floatatom 316 173 5 1 1000 0 - - -;
#X obj 316 147 * 1000;
#X obj 358 515 *~ 0.25;
#X obj 524 515 *~ 0.25;
#X connect 0 0 4 0;
#X connect 1 0 5 0;
#X connect 3 0 0 0;
#X connect 3 0 8 0;
#X connect 3 0 13 0;
#X connect 4 0 30 0;
#X connect 5 0 30 1;
#X connect 6 0 4 1;
#X connect 7 0 38 0;
#X connect 8 0 9 0;
#X connect 9 0 25 0;
#X connect 9 0 36 0;
#X connect 10 0 11 0;
#X connect 10 0 1 0;
#X connect 10 0 27 0;
#X connect 11 0 12 0;
#X connect 12 0 26 0;
#X connect 13 0 9 1;
#X connect 14 0 17 0;
#X connect 15 0 18 0;
#X connect 16 0 14 0;
#X connect 16 0 19 0;
#X connect 16 0 28 0;
#X connect 17 0 7 1;
#X connect 18 0 7 1;
#X connect 19 0 20 0;
#X connect 20 0 6 0;
#X connect 21 0 15 0;
#X connect 21 0 22 0;
#X connect 21 0 29 0;
#X connect 22 0 23 0;
#X connect 23 0 24 0;
#X connect 23 0 33 0;
#X connect 24 0 5 1;
#X connect 25 0 17 1;
#X connect 26 0 18 1;
#X connect 27 0 12 1;
#X connect 28 0 20 1;
#X connect 29 0 23 1;
#X connect 30 0 37 0;
#X connect 31 0 5 0;
#X connect 32 0 31 0;
#X connect 33 0 32 0;
#X connect 34 0 17 0;
#X connect 35 0 34 0;
#X connect 36 0 35 0;
#X connect 37 0 2 0;
#X connect 38 0 2 1;
